Coordinates
version=1
nRows=7
nColumns=63
inDegrees=yes

Units are S.I. units (second, meters, Newtons, ...)
If the header above contains a line with 'inDegrees', this indicates whether rotational values are in degrees (yes) or radians (no).

endheader
time	pelvis_tilt	pelvis_list	pelvis_rotation	pelvis_tx	pelvis_ty	pelvis_tz	hip_flexion_r	hip_adduction_r	hip_rotation_r	knee_angle_r	knee_angle_r_beta	ankle_angle_r	subtalar_angle_r	mtp_angle_r	hip_flexion_l	hip_adduction_l	hip_rotation_l	knee_angle_l	knee_angle_l_beta	ankle_angle_l	subtalar_angle_l	mtp_angle_l	L5_S1_Flex_Ext	L5_S1_Lat_Bending	L5_S1_axial_rotation	L4_L5_Flex_Ext	L4_L5_Lat_Bending	L4_L5_axial_rotation	L3_L4_Flex_Ext	L3_L4_Lat_Bending	L3_L4_axial_rotation	L2_L3_Flex_Ext	L2_L3_Lat_Bending	L2_L3_axial_rotation	L1_L2_Flex_Ext	L1_L2_Lat_Bending	L1_L2_axial_rotation	L1_T12_Flex_Ext	L1_T12_Lat_Bending	L1_T12_axial_rotation	Abs_r3	Abs_r2	Abs_r1	Abs_t1	Abs_t2	neck_flexion	neck_bending	neck_rotation	arm_flex_r	arm_add_r	arm_rot_r	elbow_flex_r	pro_sup_r	wrist_flex_r	wrist_dev_r	arm_flex_l	arm_add_l	arm_rot_l	elbow_flex_l	pro_sup_l	wrist_flex_l	wrist_dev_l
     12.34200000	    -53.04296659	      5.08579013	      3.48584816	     -0.35155881	      0.99016285	      0.03721036	     89.54475700	     -8.75790068	      1.32242588	     61.99982116	      1.08210101	     -5.77190677	     -7.16348156	      0.00000000	    129.44866084	     -7.44268340	     -3.28224912	    100.51138610	      1.75425462	      2.79110444	      3.31156044	      0.00000000	     -0.08844170	     -1.06469751	     -0.42325927	     -0.16424509	     -1.41604769	     -0.44971297	     -0.14530087	     -2.58870552	     -0.44971297	     -0.10108002	     -2.58870552	     -0.37035186	     -0.08212697	     -2.17113116	     -0.34389815	     -0.05053559	     -1.64921644	     -0.31744445	     -0.63173024	    -12.04407115	     -2.35404107	      0.00000000	      0.00000000	      0.00000000	      0.00000000	      0.00000000	     64.87282093	     -6.28654260	    -10.49422634	     41.59240203	     47.27155369	      0.00000000	      5.00000014	     73.03880460	     -8.32188441	     11.03060464	     38.49598735	     55.73035086	      0.00000000	      5.00000014
     12.35000000	    -53.08159212	      4.66376516	      2.98158409	     -0.35250119	      0.99027626	      0.03764403	     90.37196106	     -8.20049357	      1.31034940	     64.60824169	      1.12762654	     -5.84842410	     -7.44790213	      0.00000000	    128.79914376	     -7.54106953	     -2.93378305	     98.26014939	      1.71496313	      2.65943254	      3.14663321	      0.00000000	     -0.08790077	     -1.00167647	     -0.32616306	     -0.16324052	     -1.33222971	     -0.34654825	     -0.14441217	     -2.43547618	     -0.34654825	     -0.10046179	     -2.43547618	     -0.28539268	     -0.08162465	     -2.04261866	     -0.26500749	     -0.05022650	     -1.55159686	     -0.24462230	     -0.62786639	    -11.33116459	     -1.81402110	      0.00000000	      0.00000000	      0.00000000	      0.00000000	      0.00000000	     65.09788388	     -6.39284995	    -10.44737262	     41.71978629	     47.27806814	      0.00000000	      5.00000014	     73.01886374	     -8.19042711	     10.82760313	     38.56936278	     55.70919733	      0.00000000	      5.00000014
     12.35800000	    -53.13888375	      4.09551364	      2.87330822	     -0.35345401	      0.99041525	      0.03740146	     91.34422991	     -8.09492993	      0.90696347	     67.36572185	      1.17575365	     -6.83264787	     -8.81124484	      0.00000000	    128.01165753	     -7.23674093	     -2.87490378	     95.73176569	      1.67083451	      1.82650426	      2.04132883	      0.00000000	     -0.08836601	     -0.91734299	     -0.31948253	     -0.16410452	     -1.22006618	     -0.33945018	     -0.14517652	     -2.23042776	     -0.33945018	     -0.10099352	     -2.23042776	     -0.27954721	     -0.08205668	     -1.87064583	     -0.25957955	     -0.05049234	     -1.42096430	     -0.23961189	     -0.63118960	    -10.37716742	     -1.77686597	      0.00000000	      0.00000000	      0.00000000	      0.00000000	      0.00000000	     65.39271336	     -6.57102796	     -9.73298733	     41.77076245	     47.37850399	      0.00000000	      5.00000014	     72.77340955	     -7.81858654	      9.14096696	     38.73921112	     55.54068765	      0.00000000	      5.00000014
     12.36700000	    -53.13381986	      3.62429114	      2.26998379	     -0.35418568	      0.99024776	      0.03802105	     92.29045938	     -7.44787693	      0.85112346	     70.09820985	      1.22344456	     -6.92159557	     -8.94959394	      0.00000000	    127.10766565	     -7.45089377	     -2.44351185	     93.34983624	      1.62926200	      1.49762786	      1.95606226	      0.00000000	     -0.08782251	     -0.84688254	     -0.21158323	     -0.16309518	     -1.12635378	     -0.22480719	     -0.14428360	     -2.05911021	     -0.22480719	     -0.10037235	     -2.05911021	     -0.18513533	     -0.08155198	     -1.72696288	     -0.17191138	     -0.05018178	     -1.31182106	     -0.15868743	     -0.62730741	     -9.58010470	     -1.17676248	      0.00000000	      0.00000000	      0.00000000	      0.00000000	      0.00000000	     65.60458950	     -6.62670137	     -9.64002439	     41.87179579	     47.39112967	      0.00000000	      5.00000014	     72.73222293	     -7.76652817	      8.99210048	     38.75729414	     55.52853763	      0.00000000	      5.00000014
     12.37500000	    -53.12349078	      3.18465419	      1.70763897	     -0.35480573	      0.99006152	      0.03856534	     93.26051545	     -6.88801540	      0.72420692	     72.79085824	      1.27044014	     -7.03173972	     -9.10686879	      0.00000000	    126.06531129	     -7.68327083	     -2.13140148	     90.84247705	      1.58550033	      1.02100870	      1.88381991	      0.00000000	     -0.08795323	     -0.77809642	     -0.11959657	     -0.16333794	     -1.03486824	     -0.12707135	     -0.14449835	     -1.89186364	     -0.12707135	     -0.10052174	     -1.89186364	     -0.10464700	     -0.08167337	     -1.58669422	     -0.09717221	     -0.05025647	     -1.20527136	     -0.08969743	     -0.62824110	     -8.80198233	     -0.66516024	      0.00000000	      0.00000000	      0.00000000	      0.00000000	      0.00000000	     65.81263312	     -6.63046400	     -9.45053992	     41.94877414	     47.41477876	      0.00000000	      5.00000014	     72.67425794	     -7.77182569	      8.76615984	     38.75755921	     55.50499381	      0.00000000	      5.00000014
     12.38300000	    -53.12894065	      2.77750947	      1.90469056	     -0.35540601	      0.98988629	      0.03801428	     94.47016946	     -7.19186726	      0.56513610	     75.76981789	      1.32243280	     -7.80791009	     -9.55200726	      0.00000000	    124.80820098	     -7.29141338	     -2.38006180	     87.99681785	      1.53583420	     -0.20422804	      1.39785685	      0.00000000	     -0.09006364	     -0.71418225	     -0.17999151	     -0.16725719	     -0.94986239	     -0.19124098	     -0.14796556	     -1.73646271	     -0.19124098	     -0.10293374	     -1.73646271	     -0.15749257	     -0.08363310	     -1.45636044	     -0.14624310	     -0.05146237	     -1.10626830	     -0.13499363	     -0.64331559	     -8.07897241	     -1.00105878	      0.00000000	      0.00000000	      0.00000000	      0.00000000	      0.00000000	     66.05185430	     -6.75072609	     -8.49917188	     41.86117249	     47.54104107	      0.00000000	      5.00000014	     72.53375722	     -7.63831422	      7.67073055	     38.72668918	     55.38273109	      0.00000000	      5.00000014
     12.39200000	    -53.08800575	      2.40887437	      1.51399786	     -0.35578363	      0.98939934	      0.03810444	     95.59791976	     -6.87125698	      0.48795743	     78.58818945	      1.37162266	     -7.98273084	     -9.82065678	      0.00000000	    123.54950085	     -7.40664901	     -2.27757650	     85.41818949	      1.49082865	     -1.03224625	      1.18846929	      0.00000000	     -0.08973007	     -0.64788299	     -0.12653895	     -0.16663771	     -0.86168437	     -0.13444763	     -0.14741753	     -1.57526269	     -0.13444763	     -0.10255250	     -1.57526269	     -0.11072158	     -0.08332334	     -1.32116298	     -0.10281289	     -0.05127176	     -1.00357075	     -0.09490421	     -0.64093291	     -7.32898191	     -0.70377166	      0.00000000	      0.00000000	      0.00000000	      0.00000000	      0.00000000	     66.26507802	     -6.78655674	     -7.95745978	     41.88776819	     47.61328256	      0.00000000	      5.00000014	     72.37312676	     -7.61179298	      7.01755945	     38.72428319	     55.31264594	      0.00000000	      5.00000014
